<svg width="200" height="80" viewBox="0 0 200 80" xmlns="http://www.w3.org/2000/svg">
  <!-- Shopping Cart Icon -->
  <g transform="translate(20, 10)">
    <path d="M7 4V2C7 0.9 7.9 0 9 0H11C12.1 0 13 0.9 13 2V4H15C15.6 4 16 4.4 16 5S15.6 6 15 6H14L13 14C13 15.1 12.1 16 11 16H5C3.9 16 3 15.1 3 14L2 6H1C0.4 6 0 5.6 0 5S0.4 4 1 4H7ZM9 2V4H11V2H9ZM4.1 6L5 14H11L11.9 6H4.1Z" fill="#1a365d" transform="scale(2.5)"/>
    <circle cx="12" cy="48" r="4" fill="#1a365d"/>
    <circle cx="32" cy="48" r="4" fill="#1a365d"/>
  </g>
  
  <!-- E-COMMERCE Text -->
  <text x="70" y="35" font-family="Arial, sans-serif" font-size="18" font-weight="bold" fill="#e53e3e">E-COMMERCE</text>
</svg>